HIERARCHY
ROOT root
{
	OFFSET 0.000000 0.000000 0.000000
	CHANNELS 6 Xposition Yposition Zposition Zrotation Yrotation Xrotation
	JOINT lhip
	{
		OFFSET 0.058581 -0.082280 -0.017664
		CHANNELS 3 Zrotation Yrotation Xrotation
		JOINT lknee
		{
			OFFSET 0.043451 -0.386469 0.008037
			CHANNELS 3 Zrotation Yrotation Xrotation
			JOINT lankle
			{
				OFFSET -0.014790 -0.426874 -0.037428
				CHANNELS 3 Zrotation Yrotation Xrotation
				JOINT ltoe
				{
					OFFSET 0.041054 -0.060286 0.122042
					CHANNELS 3 Zrotation Yrotation Xrotation
					End Site
					{
						OFFSET 0.000000 0.000000 0.000000
					}
				}
			}
		}
	}
	JOINT rhip
	{
		OFFSET -0.060310 -0.090513 -0.013543
		CHANNELS 3 Zrotation Yrotation Xrotation
		JOINT rknee
		{
			OFFSET -0.043257 -0.383688 -0.004843
			CHANNELS 3 Zrotation Yrotation Xrotation
			JOINT rankle
			{
				OFFSET 0.019056 -0.420046 -0.034562
				CHANNELS 3 Zrotation Yrotation Xrotation
				JOINT rtoe
				{
					OFFSET -0.034840 -0.062106 0.130323
					CHANNELS 3 Zrotation Yrotation Xrotation
					End Site
					{
						OFFSET 0.000000 0.000000 0.000000
					}
				}
			}
		}
	}
	JOINT lowerback
	{
		OFFSET 0.004439 0.124404 -0.038385
		CHANNELS 3 Zrotation Yrotation Xrotation
		JOINT upperback
		{
			OFFSET 0.004488 0.137956 0.026820
			CHANNELS 3 Zrotation Yrotation Xrotation
			JOINT chest
			{
				OFFSET -0.002265 0.056032 0.002855
				CHANNELS 3 Zrotation Yrotation Xrotation
				JOINT lowerneck
				{
					OFFSET -0.013390 0.211636 -0.033468
					CHANNELS 3 Zrotation Yrotation Xrotation
					JOINT upperneck
					{
						OFFSET 0.010113 0.088937 0.050410
						CHANNELS 3 Zrotation Yrotation Xrotation
						End Site
						{
							OFFSET 0.000000 0.000000 0.000000
						}
					}
				}
				JOINT lclavicle
				{
					OFFSET 0.071702 0.114000 -0.018898
					CHANNELS 3 Zrotation Yrotation Xrotation
					JOINT lshoulder
					{
						OFFSET 0.122921 0.045205 -0.019046
						CHANNELS 3 Zrotation Yrotation Xrotation
						JOINT lelbow
						{
							OFFSET 0.255332 -0.015649 -0.022946
							CHANNELS 3 Zrotation Yrotation Xrotation
							JOINT lwrist
							{
								OFFSET 0.265709 0.012698 -0.007375
								CHANNELS 3 Zrotation Yrotation Xrotation
								End Site
								{
									OFFSET 0.000000 0.000000 0.000000
								}
							}
						}
					}
				}
				JOINT rclavicle
				{
					OFFSET -0.082954 0.112472 -0.023707
					CHANNELS 3 Zrotation Yrotation Xrotation
					JOINT rshoulder
					{
						OFFSET -0.113228 0.046853 -0.008472
						CHANNELS 3 Zrotation Yrotation Xrotation
						JOINT relbow
						{
							OFFSET -0.260127 -0.014369 -0.031269
							CHANNELS 3 Zrotation Yrotation Xrotation
							JOINT rwrist
							{
								OFFSET -0.269108 0.006794 -0.006027
								CHANNELS 3 Zrotation Yrotation Xrotation
								End Site
								{
									OFFSET 0.000000 0.000000 0.000000
								}
							}
						}
					}
				}
			}
		}
	}
}
MOTION
Frames: 7
Frame Time: 0.033333
1.045721 0.716331 0.652388 86.417814 -0.967630 76.181646 15.713722 3.349697 -68.131815 2.526079 22.793953 75.784730 5.610625 3.760655 -0.872588 0.000000 -0.000000 0.000000 -9.129677 -1.454161 -74.685919 -2.110913 -20.965029 79.923535 7.380480 4.647412 17.149250 0.000000 -0.000000 0.000000 -2.799749 -0.687379 12.912309 3.897204 0.046710 -8.386035 -1.146270 -0.277631 -15.383446 -2.361294 -2.297456 32.005237 4.745430 3.030513 -4.612272 -25.659909 -1.606679 15.671667 -37.637281 -2.013035 3.825133 36.030375 -76.095072 -8.586335 -47.789063 -5.632489 2.376763 24.880665 4.267087 19.029189 36.388838 13.925239 3.482546 6.922372 67.272058 44.852914 42.225321 6.816474 -3.491392 
1.045263 0.715368 0.651253 86.125332 -1.192182 75.860064 15.800023 3.284421 -67.824281 2.658325 22.753096 75.799343 5.438257 3.777367 -0.665487 0.000000 -0.000000 0.000000 -9.145001 -2.105742 -74.972574 -2.173774 -20.478355 80.409314 8.701684 5.794179 16.505745 0.000000 -0.000000 0.000000 -3.368260 -0.462254 14.017132 3.783951 0.306169 -10.109021 -0.990962 -0.225635 -14.210546 -1.765553 -2.117190 31.659323 4.946199 2.208018 -4.729701 -25.459396 -1.478709 15.499739 -37.753082 -2.354748 3.956021 38.385337 -75.942098 -10.959696 -47.618296 -6.228685 1.598967 25.068962 4.040711 18.654254 37.025698 13.969567 3.605536 4.692910 67.275564 42.932349 41.899568 6.927022 -3.390173 
1.045199 0.714069 0.650569 85.752548 -1.292669 75.850383 16.088783 3.132521 -67.803849 2.754878 22.721664 75.741022 5.395362 4.030228 -0.410616 0.000000 -0.000000 0.000000 -9.133715 -2.268095 -75.055284 -2.726317 -20.126854 80.416548 7.576655 4.841611 14.064111 0.000000 -0.000000 0.000000 -3.655614 -0.272613 14.098214 3.753953 0.512464 -10.414040 -0.969639 -0.189561 -13.921869 -1.647032 -2.163280 31.620520 5.008634 1.851229 -4.849509 -25.325625 -1.171052 15.470962 -37.662729 -2.751601 3.732303 38.843592 -76.032264 -11.562193 -47.102507 -6.661916 0.965281 25.273075 3.861198 18.676916 37.452073 14.129040 3.683361 2.550854 67.325936 40.958263 41.829459 6.836191 -3.170945 
1.045009 0.712142 0.650205 85.412015 -1.278367 76.083650 16.614857 2.602390 -68.150593 3.119763 22.643865 75.745807 5.313267 4.453932 -0.000308 0.000000 -0.000000 0.000000 -9.170338 -1.885444 -74.626466 -3.601702 -19.431663 79.489829 5.731135 2.756246 11.452627 0.000000 -0.000000 0.000000 -3.925048 -0.075019 13.737065 3.845435 0.643007 -10.610583 -0.881832 -0.206007 -13.746902 -1.755696 -2.254668 31.889697 4.828913 1.649947 -4.959167 -25.279695 -0.722087 15.629888 -37.444058 -3.230599 3.628167 38.462317 -76.025947 -11.188000 -46.232632 -7.188484 0.485771 25.580766 3.584340 18.720488 37.540294 14.322298 4.002947 0.748540 67.255135 39.181793 41.426029 7.113372 -3.406118 
1.044929 0.710972 0.650239 85.337865 -1.228006 76.219739 16.996648 2.111626 -68.391147 3.331728 22.657861 75.749749 5.229516 4.774936 0.223160 0.000000 -0.000000 0.000000 -9.376545 -1.398427 -73.918977 -3.563391 -18.949449 78.333987 5.087929 2.277349 9.910344 0.000000 -0.000000 0.000000 -4.079867 0.069168 13.415484 3.983930 0.570779 -10.569625 -0.812968 -0.248482 -13.757762 -1.751682 -2.177832 32.153358 4.608037 1.451370 -5.052200 -25.280042 -0.553514 15.726254 -37.364179 -3.385407 3.729626 38.361451 -75.912620 -11.055946 -46.132160 -7.408990 0.227244 25.772556 3.427119 18.725611 37.366721 14.408412 4.170709 0.494798 67.180708 38.901345 41.158288 7.403997 -3.795645 
1.044972 0.709579 0.650575 85.405173 -1.130941 76.278338 17.445760 1.387139 -68.607968 3.462886 22.678557 75.731953 5.209697 5.254597 0.462825 0.000000 -0.000000 0.000000 -9.604742 -0.771167 -72.877076 -2.680768 -18.745974 76.941055 4.328380 3.005272 7.633559 0.000000 -0.000000 0.000000 -4.260557 0.250983 12.992593 4.219987 0.338094 -10.296729 -0.739388 -0.321596 -13.887109 -1.602659 -1.873884 32.407940 4.277269 0.997481 -5.117545 -25.304279 -0.527981 15.720389 -37.343657 -3.338856 4.010573 38.601673 -75.720227 -11.230284 -46.453558 -7.455756 0.085038 26.043976 3.285242 18.766769 36.966037 14.455342 4.154070 1.099250 67.111404 39.498151 40.866253 7.773757 -4.356865 
1.045285 0.709017 0.651142 85.587203 -1.153787 76.523407 17.714096 0.686228 -68.924881 3.659435 22.849574 75.607490 5.426006 5.588576 0.684742 0.000000 -0.000000 0.000000 -9.846211 -0.608693 -73.067749 -2.665857 -19.183557 76.938551 3.667435 2.689202 8.106558 0.000000 -0.000000 0.000000 -4.382137 0.181472 12.413177 4.344472 0.261782 -10.084366 -0.741265 -0.371446 -14.149582 -1.894818 -1.936198 32.968497 3.989323 1.034454 -5.273119 -25.490867 -0.409598 16.015477 -37.196639 -3.391945 4.126686 38.764480 -75.527149 -11.546318 -47.056193 -7.351045 0.134045 26.235158 3.067380 19.061276 36.596275 14.513204 4.249986 1.391386 67.128062 39.668657 40.815381 7.950766 -4.581630 
